<?xml version="1.0" standalone="no"?>
<!DOCTYPE svg PUBLIC "-//W3C//DTD SVG 20010904//EN"
 "http://www.w3.org/TR/2001/REC-SVG-20010904/DTD/svg10.dtd">
<svg version="1.0" xmlns="http://www.w3.org/2000/svg"
 width="2373.000000pt" height="2374.000000pt" viewBox="0 0 2373.000000 2374.000000"
 preserveAspectRatio="xMidYMid meet">
<metadata>
Created by potrace 1.16, written by Peter Selinger 2001-2019
</metadata>
<g transform="translate(0.000000,2374.000000) scale(0.100000,-0.100000)"
fill="#ffff" stroke="none">
<path d="M11405 23730 c-676 -29 -1303 -106 -1980 -244 -242 -49 -707 -165
-900 -225 -16 -5 -70 -22 -120 -36 -157 -48 -601 -197 -650 -219 -16 -8 -64
-26 -105 -40 -41 -15 -84 -31 -95 -36 -11 -5 -56 -23 -100 -41 -44 -17 -93
-37 -110 -44 -16 -7 -55 -23 -85 -35 -30 -12 -68 -28 -85 -35 -16 -7 -57 -25
-90 -40 -183 -81 -596 -282 -801 -390 -121 -64 -225 -121 -266 -147 -25 -16
-68 -40 -95 -54 -26 -13 -86 -49 -133 -78 -47 -30 -91 -55 -97 -55 -7 -1 -13
-5 -13 -10 0 -5 -11 -12 -25 -15 -14 -4 -25 -11 -25 -16 0 -6 -7 -10 -15 -10
-8 0 -15 -4 -15 -8 0 -4 -25 -21 -55 -37 -30 -15 -55 -32 -55 -36 0 -4 -10
-11 -22 -15 -22 -7 -70 -38 -96 -61 -7 -7 -34 -25 -60 -40 -26 -15 -56 -35
-66 -45 -11 -10 -26 -18 -33 -18 -7 0 -13 -4 -13 -9 0 -5 -9 -12 -19 -16 -11
-3 -34 -19 -53 -35 -18 -16 -48 -37 -65 -45 -18 -9 -33 -19 -33 -23 0 -4 -15
-16 -32 -27 -28 -16 -173 -118 -203 -142 -5 -5 -26 -19 -45 -33 -19 -13 -42
-31 -51 -39 -9 -9 -26 -23 -39 -31 -12 -8 -28 -19 -34 -25 -6 -5 -32 -26 -56
-45 -25 -19 -46 -38 -48 -42 -2 -4 -10 -8 -17 -8 -8 0 -18 -7 -22 -14 -5 -8
-42 -41 -83 -72 -41 -31 -84 -65 -95 -75 -11 -10 -32 -30 -47 -44 -15 -14 -30
-25 -34 -25 -4 0 -19 -12 -34 -27 -32 -33 -88 -83 -93 -83 -2 0 -24 -19 -48
-42 -25 -24 -67 -61 -93 -83 -27 -22 -70 -60 -97 -85 -297 -279 -437 -418
-599 -590 -52 -56 -117 -126 -145 -155 -27 -29 -72 -79 -100 -111 -27 -31 -65
-72 -82 -91 -18 -19 -33 -37 -33 -39 0 -4 -31 -40 -93 -108 -47 -52 -53 -59
-107 -126 -25 -30 -48 -56 -52 -58 -5 -2 -8 -8 -8 -13 0 -11 -27 -44 -57 -72
-13 -11 -23 -27 -23 -34 0 -7 -4 -13 -8 -13 -5 0 -24 -21 -42 -47 -19 -27 -39
-53 -45 -59 -5 -6 -17 -22 -25 -34 -8 -13 -23 -30 -32 -39 -10 -8 -18 -19 -18
-24 0 -4 -4 -13 -10 -20 -43 -53 -103 -133 -141 -187 -24 -36 -54 -76 -66 -90
-13 -14 -23 -29 -23 -33 0 -7 -46 -74 -60 -87 -3 -3 -38 -54 -78 -115 -39 -60
-76 -115 -82 -122 -6 -7 -15 -24 -22 -38 -6 -14 -15 -25 -20 -25 -4 0 -8 -6
-8 -12 0 -7 -11 -26 -25 -42 -14 -16 -25 -34 -25 -40 0 -6 -11 -24 -25 -40
-14 -16 -25 -35 -25 -43 0 -7 -4 -13 -10 -13 -5 0 -10 -7 -10 -15 0 -8 -4 -15
-8 -15 -5 0 -16 -18 -26 -40 -10 -22 -23 -46 -30 -53 -7 -6 -27 -39 -46 -72
-18 -33 -47 -84 -64 -114 -17 -30 -51 -90 -75 -135 -24 -45 -47 -83 -50 -86
-3 -3 -19 -31 -36 -64 -16 -32 -52 -101 -80 -153 -53 -101 -134 -263 -190
-378 -58 -120 -115 -244 -115 -249 0 -2 -20 -47 -45 -100 -25 -53 -45 -99 -45
-101 0 -3 -9 -24 -19 -48 -11 -23 -38 -89 -61 -147 -23 -58 -51 -124 -61 -147
-10 -23 -19 -47 -19 -53 0 -5 -9 -29 -19 -53 -10 -23 -31 -76 -46 -117 -15
-41 -35 -97 -45 -125 -48 -128 -186 -559 -232 -724 -228 -818 -359 -1569 -425
-2451 -22 -297 -25 -1243 -5 -1525 50 -698 131 -1269 266 -1875 91 -407 165
-673 318 -1145 40 -121 77 -233 84 -250 7 -16 29 -75 49 -130 43 -118 81 -218
100 -260 7 -16 21 -50 30 -75 10 -25 25 -63 35 -85 9 -22 27 -65 40 -95 13
-30 38 -88 57 -128 18 -40 33 -75 33 -79 0 -10 95 -209 211 -443 67 -133 91
-180 190 -370 19 -36 37 -67 41 -70 4 -3 17 -26 28 -50 22 -47 49 -97 63 -115
21 -28 87 -145 87 -154 0 -6 5 -11 10 -11 6 0 10 -6 10 -14 0 -8 6 -21 14 -28
7 -8 24 -34 37 -58 14 -25 33 -58 43 -75 11 -16 30 -47 43 -67 48 -78 78 -123
91 -136 6 -7 12 -17 12 -22 0 -10 57 -98 76 -118 7 -6 16 -21 19 -32 3 -11 11
-20 16 -20 5 0 9 -7 9 -15 0 -8 5 -15 10 -15 6 0 10 -6 10 -14 0 -8 7 -16 15
-20 8 -3 15 -12 15 -20 0 -8 3 -16 8 -18 4 -1 22 -26 40 -55 18 -28 46 -67 62
-85 17 -18 30 -38 30 -43 0 -6 12 -25 28 -42 15 -17 47 -60 72 -95 58 -81 56
-79 82 -110 13 -14 30 -36 38 -48 8 -13 21 -28 27 -36 7 -7 13 -16 13 -21 0
-5 9 -15 20 -23 11 -8 20 -20 20 -28 0 -7 7 -15 15 -18 8 -4 15 -12 15 -20 0
-7 9 -18 20 -24 11 -6 20 -16 20 -24 0 -7 10 -22 23 -33 21 -19 53 -57 94
-112 10 -13 30 -35 46 -49 15 -14 27 -29 27 -34 0 -5 10 -19 23 -32 12 -12 38
-42 57 -66 19 -23 50 -58 68 -77 17 -19 32 -38 32 -42 0 -4 18 -22 40 -40 22
-18 40 -37 40 -41 0 -5 24 -33 52 -63 29 -31 96 -101 148 -156 180 -192 485
-492 620 -611 65 -57 136 -121 197 -178 19 -18 56 -49 82 -70 25 -20 58 -48
72 -62 14 -14 39 -34 55 -45 15 -11 35 -27 44 -35 8 -8 36 -31 60 -50 25 -19
50 -39 56 -45 6 -5 26 -21 43 -35 17 -14 44 -36 60 -50 16 -14 39 -32 51 -40
12 -8 29 -21 36 -28 16 -16 89 -70 163 -122 28 -19 50 -38 51 -42 0 -5 6 -8
14 -8 8 0 16 -3 18 -7 4 -10 67 -57 128 -98 25 -17 47 -33 50 -36 3 -3 20 -14
37 -24 18 -11 33 -23 33 -27 0 -4 6 -8 13 -8 6 0 28 -14 47 -30 19 -16 40 -30
45 -30 6 0 21 -10 35 -22 30 -27 106 -78 117 -78 5 0 24 -14 43 -30 19 -16 39
-30 43 -30 5 0 30 -14 55 -32 93 -63 101 -68 110 -68 4 0 17 -8 28 -18 10 -10
40 -29 66 -42 27 -13 48 -27 48 -31 0 -4 11 -10 25 -13 14 -4 25 -11 25 -16 0
-6 6 -10 13 -10 7 0 35 -15 62 -33 28 -18 65 -39 83 -46 17 -7 32 -16 32 -20
0 -4 16 -13 35 -20 19 -7 35 -16 35 -20 0 -4 16 -13 35 -20 19 -7 40 -18 47
-24 14 -13 67 -41 258 -138 63 -32 126 -65 140 -73 22 -12 188 -93 371 -179
31 -15 59 -27 62 -27 3 0 41 -16 84 -36 43 -20 98 -45 123 -56 25 -10 59 -25
75 -32 123 -53 309 -127 435 -172 52 -19 104 -38 115 -43 42 -20 384 -134 645
-214 160 -50 340 -96 340 -89 0 4 4 2 8 -4 11 -17 598 -154 857 -200 846 -152
1580 -214 2375 -200 715 12 1257 64 1975 191 369 65 823 173 1220 291 211 63
670 214 710 234 11 6 56 23 100 39 97 35 259 98 300 116 81 36 125 55 131 55
3 0 31 12 62 26 31 15 91 41 132 59 125 54 236 106 505 237 64 31 258 134 355
187 41 23 91 50 110 59 19 9 37 20 40 23 3 4 29 18 58 33 45 23 98 53 177 103
11 7 36 22 55 34 19 11 51 30 71 42 20 12 60 36 90 54 30 18 61 37 69 43 78
54 183 120 190 120 6 0 10 5 10 10 0 6 5 10 10 10 12 0 73 41 78 53 2 4 10 7
18 7 8 0 14 4 14 9 0 5 12 14 27 20 16 6 46 27 68 46 22 19 45 35 51 35 7 0
14 7 18 15 3 8 12 15 20 15 8 0 16 3 18 8 2 4 27 23 55 42 29 19 53 38 53 43
0 4 7 7 15 7 8 0 15 5 15 10 0 6 6 10 13 10 7 0 20 8 28 18 9 9 26 24 39 32
12 8 28 21 36 28 7 6 15 12 18 12 3 0 15 8 26 18 42 36 57 48 93 72 20 14 37
28 37 33 0 4 6 7 13 7 6 1 30 19 52 40 22 22 43 40 48 40 4 0 15 8 25 18 10 9
33 28 52 42 18 14 44 35 56 48 13 12 26 22 29 22 4 0 20 12 36 28 16 15 45 41
65 57 20 17 48 41 63 55 15 14 46 40 69 58 22 18 53 45 69 60 16 15 62 56 103
92 40 36 108 100 150 143 43 42 80 77 83 77 3 0 97 93 209 206 112 114 231
235 266 270 34 35 62 66 62 70 0 4 21 29 48 54 26 26 65 69 87 95 22 26 54 62
70 80 17 19 48 55 70 81 22 26 50 57 63 69 12 12 22 26 22 31 0 6 19 30 43 54
24 25 57 63 73 85 16 22 34 45 39 51 6 6 20 25 33 41 13 17 39 48 58 70 19 21
34 41 34 44 0 3 11 19 25 35 14 16 29 34 33 39 72 94 134 178 162 219 19 28
40 55 47 59 7 4 13 14 13 21 0 7 11 25 25 40 14 15 25 30 25 34 0 4 11 21 25
37 13 17 28 35 33 40 4 6 31 46 59 90 29 44 57 85 62 92 6 7 11 16 11 21 0 4
8 17 18 28 23 25 112 161 112 171 0 4 11 21 25 37 14 16 25 33 25 39 0 5 10
23 23 40 12 18 30 48 41 67 10 19 21 37 25 40 6 5 13 16 59 99 14 25 29 48 34
49 4 2 8 9 8 16 0 8 8 24 18 37 17 22 62 102 129 229 13 25 43 81 66 125 40
75 234 461 277 550 54 114 90 194 90 199 0 6 63 146 85 189 8 16 15 33 15 38
0 5 15 44 34 87 44 98 88 209 136 342 21 58 53 143 70 190 131 355 266 822
395 1365 113 478 216 1177 261 1785 22 288 30 1091 15 1389 -31 600 -81 1029
-191 1641 -57 321 -187 855 -295 1215 -55 184 -179 559 -210 638 -8 20 -22 55
-30 77 -28 76 -48 125 -61 157 -8 17 -14 37 -14 45 0 8 -4 18 -9 24 -5 5 -14
27 -21 49 -7 22 -16 45 -21 51 -5 6 -20 42 -34 79 -15 38 -35 87 -45 110 -10
22 -44 99 -75 170 -31 72 -77 173 -102 225 -118 243 -219 446 -228 456 -5 6
-23 40 -40 75 -16 35 -35 70 -42 77 -6 6 -15 22 -19 34 -3 12 -26 55 -50 96
-24 40 -44 75 -44 77 0 3 -20 38 -45 78 -25 41 -45 78 -45 81 0 4 -11 22 -25
40 -14 18 -25 36 -25 40 0 4 -20 37 -44 74 -24 37 -50 79 -57 95 -7 15 -16 27
-21 27 -4 0 -8 5 -8 11 0 6 -16 33 -35 59 -19 26 -35 52 -35 57 0 6 -11 23
-25 39 -14 16 -25 35 -25 42 0 6 -4 12 -9 12 -5 0 -14 14 -21 30 -7 17 -15 30
-19 30 -4 0 -22 26 -41 58 -19 31 -39 62 -45 69 -5 7 -16 19 -22 27 -7 8 -13
20 -13 26 0 5 -4 10 -10 10 -5 0 -10 4 -10 10 0 9 -91 137 -145 205 -14 17
-25 34 -25 39 0 10 -70 99 -82 104 -5 2 -8 8 -8 12 0 5 -16 26 -35 47 -19 21
-35 44 -35 51 0 6 -4 12 -8 12 -4 0 -15 12 -24 28 -9 15 -27 39 -41 54 -14 15
-40 47 -58 72 -18 25 -36 46 -41 46 -4 0 -8 6 -8 14 0 8 -10 23 -23 33 -12 10
-30 29 -39 43 -9 14 -31 41 -48 60 -34 39 -79 91 -125 145 -16 19 -46 53 -65
76 -19 22 -52 58 -72 80 -21 22 -38 42 -38 44 0 2 -12 17 -27 32 -16 16 -77
82 -138 147 -97 104 -178 185 -527 529 -43 42 -81 77 -85 77 -4 0 -28 21 -53
48 -26 26 -70 67 -99 92 -52 43 -100 86 -150 132 -13 12 -45 39 -70 61 -25 22
-58 49 -72 62 -14 12 -33 26 -41 31 -9 5 -34 26 -57 47 -22 20 -44 37 -48 37
-5 0 -27 18 -51 40 -23 22 -46 40 -50 40 -4 0 -15 8 -24 18 -18 19 -25 24 -83
67 -22 17 -53 42 -70 57 -16 16 -35 28 -42 28 -6 0 -13 3 -15 8 -1 4 -21 20
-43 37 -22 16 -44 33 -50 37 -43 33 -106 77 -137 97 -21 12 -38 27 -38 32 0 5
-6 9 -13 9 -8 0 -22 9 -33 21 -10 12 -32 28 -48 36 -16 8 -38 24 -49 34 -12
10 -26 19 -32 19 -6 0 -26 12 -45 28 -19 15 -47 34 -62 41 -16 8 -28 18 -28
23 0 4 -6 8 -12 8 -7 0 -29 14 -48 30 -19 16 -39 30 -44 30 -5 0 -24 11 -42
25 -18 14 -35 25 -39 25 -6 0 -93 58 -130 85 -10 8 -23 15 -29 15 -5 0 -24 11
-42 25 -18 14 -37 25 -43 25 -6 0 -11 4 -11 10 0 5 -11 12 -25 16 -14 3 -25 9
-25 13 0 4 -12 12 -27 18 -16 7 -41 20 -58 30 -125 76 -226 132 -257 144 -16
6 -28 14 -28 19 0 4 -20 15 -45 25 -25 9 -51 22 -58 29 -12 12 -558 286 -569
286 -4 0 -49 20 -100 44 -90 42 -242 110 -283 126 -11 5 -50 22 -88 39 -37 17
-70 31 -73 31 -4 0 -45 15 -93 34 -407 159 -782 288 -1056 363 -49 13 -121 33
-160 45 -38 11 -104 29 -145 40 -41 10 -91 23 -110 29 -19 5 -53 13 -75 18
-22 5 -130 29 -240 54 -626 141 -1249 227 -1925 267 -244 15 -885 20 -1125 10z
m6715 -4950 c-42 -711 -170 -1380 -368 -1925 -16 -44 -39 -101 -51 -127 -11
-26 -21 -50 -21 -53 0 -21 -209 -417 -229 -435 -3 -3 -20 -25 -36 -50 -17 -25
-33 -46 -37 -48 -5 -2 -8 -10 -8 -18 0 -8 -4 -14 -8 -14 -4 0 -26 -24 -47 -52
-39 -52 -201 -216 -247 -251 -12 -9 -37 -28 -54 -42 -18 -14 -37 -25 -43 -25
-6 0 -11 -4 -11 -9 0 -17 -267 -140 -360 -165 -220 -59 -78 -57 -3162 -50
l-2818 7 0 -276 c0 -200 -3 -277 -11 -277 -7 0 -22 11 -35 25 -13 14 -27 25
-31 25 -5 0 -16 8 -24 18 -22 24 -120 106 -133 111 -6 2 -23 16 -37 30 -14 14
-36 33 -49 41 -12 8 -30 22 -39 32 -16 17 -61 53 -121 98 -19 14 -46 36 -61
50 -25 23 -42 37 -112 95 -13 11 -37 29 -53 40 -15 11 -40 32 -55 46 -15 15
-32 28 -37 30 -9 4 -81 63 -128 107 -14 12 -28 22 -33 22 -4 0 -17 10 -28 23
-11 12 -31 31 -44 41 -13 11 -40 32 -59 48 -19 16 -48 39 -63 51 -16 12 -37
30 -48 40 -11 10 -41 34 -67 53 -26 20 -54 43 -62 50 -21 20 -64 56 -95 79
-14 11 -38 32 -52 48 -15 15 -30 27 -35 27 -4 0 -16 8 -26 18 -10 9 -35 31
-57 47 -21 17 -47 38 -57 48 -10 9 -22 17 -27 17 -5 0 -18 10 -28 23 -10 12
-36 36 -58 52 -22 17 -44 35 -50 41 -5 6 -17 15 -26 20 -9 5 -37 27 -63 49
-26 22 -58 49 -71 60 -13 11 -37 31 -54 45 -17 14 -43 36 -58 50 -16 14 -44
37 -63 50 -19 13 -44 34 -55 47 -11 13 -26 23 -32 23 -7 0 -16 6 -20 13 -10
16 -129 117 -137 117 -4 0 -17 10 -30 23 -12 12 -38 33 -56 47 -36 27 -64 50
-110 90 -15 14 -41 34 -56 45 -15 11 -39 30 -52 43 -14 12 -28 22 -31 22 -3 0
-29 22 -57 48 -28 26 -68 61 -89 77 -21 17 -46 37 -55 45 -23 22 -159 133
-178 145 -9 6 -23 17 -32 26 -8 8 -37 33 -65 55 -27 21 -57 46 -66 54 -9 8
-29 24 -44 35 -16 11 -39 30 -51 43 -13 12 -26 22 -30 22 -8 0 -19 10 -70 60
-17 16 -34 30 -38 30 -4 0 -13 6 -21 13 -7 6 -33 28 -56 47 -24 19 -54 45 -67
58 -12 12 -26 22 -30 22 -4 0 -15 8 -24 18 -9 9 -35 33 -58 52 -23 19 -61 52
-84 72 -22 21 -44 38 -47 38 -3 0 -19 12 -35 26 -16 14 -45 37 -64 52 -19 15
-41 33 -48 40 -8 7 -30 25 -50 40 -21 15 -39 30 -42 33 -3 4 -27 24 -55 44
-27 21 -57 47 -66 57 -9 10 -21 18 -27 18 -6 0 -15 7 -19 15 -5 9 -34 34 -63
56 -53 40 -133 106 -171 142 -11 9 -22 17 -25 17 -4 0 -16 10 -28 23 -34 35
-75 67 -86 67 -5 0 -15 8 -22 18 -14 18 -68 64 -110 95 -14 9 -42 33 -64 53
-21 20 -56 47 -76 61 -21 14 -38 30 -38 34 0 5 -6 9 -14 9 -12 0 -26 20 -26
36 0 2 2818 5 6263 6 l6262 3 3 -65 c2 -36 -2 -148 -8 -250z m-12495 -442 c7
-7 30 -26 50 -43 21 -16 52 -43 70 -60 71 -66 105 -95 113 -95 4 0 15 -8 23
-17 9 -10 40 -38 68 -63 29 -25 65 -56 80 -70 15 -14 44 -38 65 -55 22 -16 62
-52 90 -78 28 -26 62 -54 76 -62 14 -7 34 -25 44 -39 10 -14 24 -26 31 -26 6
0 23 -12 37 -27 15 -16 45 -44 68 -63 23 -19 54 -46 69 -60 15 -14 45 -40 66
-58 78 -63 117 -98 173 -149 32 -29 60 -53 64 -53 4 0 22 -16 41 -35 19 -19
39 -35 46 -35 6 0 11 -4 11 -9 0 -5 17 -22 38 -38 48 -35 133 -107 179 -150
18 -18 37 -33 42 -33 4 0 17 -10 28 -22 11 -13 40 -39 63 -58 23 -19 57 -50
74 -67 17 -18 36 -33 42 -33 7 0 22 -13 35 -30 13 -16 28 -30 32 -30 5 0 28
-19 52 -41 25 -23 59 -53 76 -68 18 -14 57 -49 88 -78 31 -29 61 -53 67 -53 6
0 19 -10 31 -22 11 -13 37 -36 58 -53 22 -16 54 -43 71 -60 18 -16 54 -48 80
-70 26 -22 59 -50 73 -63 37 -32 72 -62 121 -102 23 -19 56 -48 74 -65 18 -16
57 -50 86 -75 29 -25 62 -53 72 -62 10 -10 22 -18 28 -18 5 0 19 -13 32 -30
12 -16 27 -30 32 -30 6 0 39 -26 73 -58 33 -31 78 -70 98 -87 20 -16 49 -42
65 -57 16 -16 32 -28 37 -28 4 0 19 -11 33 -25 52 -51 114 -107 149 -133 20
-15 50 -40 68 -57 17 -16 46 -41 63 -55 17 -14 44 -36 60 -50 75 -65 134 -117
155 -137 13 -13 28 -23 32 -23 4 0 19 -11 33 -25 46 -45 102 -95 106 -95 4 0
31 -24 104 -90 21 -19 50 -44 66 -55 15 -11 37 -29 49 -40 24 -23 104 -93 159
-138 46 -38 85 -72 146 -128 25 -22 61 -52 80 -67 19 -14 44 -35 56 -46 11
-12 38 -34 59 -51 22 -16 51 -42 65 -57 14 -14 45 -42 70 -62 55 -44 111 -92
151 -128 17 -16 33 -28 36 -28 3 0 16 -10 28 -22 39 -40 94 -88 100 -88 5 0
42 -31 99 -85 18 -16 52 -46 76 -65 25 -19 57 -47 71 -62 15 -16 31 -28 37
-28 5 0 19 -13 32 -30 13 -16 27 -30 32 -30 9 0 55 -38 97 -81 31 -31 105 -94
149 -128 18 -13 47 -38 66 -55 65 -61 159 -141 184 -158 14 -9 29 -24 34 -32
5 -9 14 -16 20 -16 6 0 23 -12 39 -27 59 -58 98 -93 104 -93 3 0 25 -18 48
-41 23 -22 68 -62 99 -87 l58 -47 0 -1637 c0 -1077 -3 -1638 -10 -1638 -10 0
-45 27 -87 68 -13 12 -27 22 -32 22 -4 0 -17 10 -28 23 -11 12 -35 33 -52 47
-18 14 -43 34 -55 45 -13 11 -40 34 -62 50 -21 17 -53 44 -70 60 -18 17 -44
39 -60 50 -34 25 -102 84 -123 108 -8 9 -20 17 -25 17 -10 0 -28 16 -73 63
-14 15 -30 27 -35 27 -4 0 -23 14 -41 31 -17 17 -51 44 -74 60 -23 16 -43 32
-45 36 -3 8 -49 47 -107 93 -18 14 -43 34 -56 45 -13 11 -40 34 -60 50 -20 17
-49 42 -65 58 -16 15 -32 27 -36 27 -3 0 -14 8 -23 18 -9 10 -38 36 -66 57
-27 22 -59 48 -70 58 -11 10 -33 28 -49 40 -16 12 -40 32 -52 44 -13 12 -30
26 -38 30 -19 11 -112 92 -143 126 -15 15 -31 27 -36 27 -5 0 -17 8 -26 18 -9
10 -46 41 -82 70 -37 28 -78 61 -91 74 -40 37 -90 78 -97 78 -3 0 -27 20 -52
43 -25 23 -70 62 -99 87 -29 25 -58 50 -64 55 -27 25 -85 72 -109 89 -15 10
-40 30 -55 45 -16 14 -45 40 -66 56 -53 42 -91 74 -143 120 -25 22 -55 47 -67
55 -11 8 -36 30 -56 48 -19 19 -51 44 -70 57 -19 13 -51 38 -71 56 -54 51
-100 89 -108 89 -3 1 -37 30 -76 65 -38 36 -73 65 -76 65 -3 0 -21 14 -40 31
-19 16 -45 40 -59 53 -14 12 -74 62 -135 111 -60 48 -139 113 -174 144 -35 31
-70 60 -79 65 -9 5 -26 19 -39 30 -99 91 -250 216 -262 216 -5 0 -11 6 -14 13
-2 6 -8 9 -12 5 -8 -8 31 -3734 41 -3955 4 -83 10 -123 18 -123 6 0 30 -18 54
-40 23 -22 45 -40 49 -40 3 0 13 -7 22 -15 47 -44 74 -65 146 -120 43 -33 89
-69 101 -80 11 -11 32 -28 45 -38 13 -10 37 -28 53 -40 17 -12 37 -29 46 -37
9 -8 43 -35 75 -60 33 -25 62 -47 65 -50 3 -3 28 -24 55 -45 28 -22 52 -43 53
-47 2 -5 10 -8 17 -8 7 0 15 -4 17 -8 2 -4 23 -23 48 -42 25 -19 47 -38 50
-41 5 -6 203 -163 254 -202 16 -12 36 -30 45 -39 8 -10 21 -18 28 -18 7 0 13
-4 13 -9 0 -4 28 -28 61 -52 34 -24 72 -54 85 -66 13 -13 27 -23 31 -23 5 0
27 -18 51 -40 23 -22 44 -40 47 -40 3 0 13 -8 23 -18 38 -36 72 -62 82 -62 5
0 15 -9 22 -20 7 -11 16 -20 21 -20 4 0 22 -13 40 -30 18 -16 35 -30 38 -30 4
0 47 -34 95 -76 49 -42 99 -81 112 -87 12 -6 22 -13 22 -17 0 -4 21 -22 48
-40 26 -19 52 -39 59 -45 6 -5 23 -19 38 -30 14 -11 37 -29 50 -40 13 -11 35
-29 50 -39 14 -11 34 -27 44 -35 10 -9 33 -27 51 -41 50 -38 80 -63 98 -82 9
-10 20 -18 24 -18 4 0 26 -18 50 -40 24 -22 46 -40 50 -40 8 0 32 -18 76 -57
14 -13 28 -23 31 -23 3 0 25 -17 47 -38 23 -20 52 -44 64 -52 13 -8 33 -25 46
-37 13 -13 26 -23 30 -23 4 0 14 -7 23 -15 51 -48 70 -63 106 -90 21 -17 47
-37 56 -45 21 -18 33 -27 84 -65 22 -17 45 -34 51 -40 6 -5 26 -21 44 -35 19
-14 42 -33 52 -43 10 -9 20 -17 23 -17 3 0 16 -9 28 -21 12 -11 60 -51 107
-87 47 -36 86 -70 88 -74 2 -4 10 -8 18 -8 8 0 14 -4 14 -8 0 -5 21 -24 48
-42 26 -19 49 -36 52 -40 3 -3 21 -17 40 -31 19 -15 47 -37 61 -50 33 -31 90
-78 107 -87 9 -7 12 -344 10 -1646 l-3 -1637 -40 36 c-22 20 -60 50 -85 68
-25 17 -47 33 -50 37 -3 3 -21 17 -40 30 -19 13 -39 30 -43 37 -4 7 -12 13
-18 13 -10 0 -26 11 -57 41 -9 9 -57 47 -107 84 -136 101 -146 109 -165 125
-10 8 -28 22 -40 30 -13 8 -33 25 -46 37 -13 13 -28 23 -34 23 -6 0 -13 7 -16
15 -4 8 -11 15 -18 15 -6 0 -36 23 -66 50 -30 27 -60 50 -66 50 -7 0 -14 7
-18 15 -3 8 -10 15 -16 15 -5 0 -18 8 -29 17 -10 10 -39 34 -65 53 -25 19 -55
42 -65 50 -11 8 -34 26 -52 40 -17 14 -46 36 -63 50 -17 14 -44 34 -61 45 -16
10 -34 24 -38 32 -4 7 -14 13 -22 13 -7 0 -15 4 -17 9 -2 5 -32 31 -68 60 -36
28 -69 54 -75 59 -5 4 -26 18 -45 32 -19 13 -37 27 -40 30 -3 3 -21 17 -40 30
-19 13 -51 39 -70 57 -19 18 -41 33 -48 33 -7 0 -15 7 -18 15 -4 8 -13 15 -20
15 -8 0 -17 7 -20 15 -4 8 -12 15 -19 15 -7 0 -15 4 -17 8 -3 7 -64 56 -133
107 -11 9 -50 39 -86 68 -37 28 -77 59 -89 67 -13 8 -30 23 -39 32 -8 10 -19
18 -23 18 -8 0 -38 22 -70 52 -10 10 -21 18 -25 18 -5 0 -30 21 -57 45 -27 25
-52 45 -56 45 -7 0 -29 18 -75 58 -11 10 -33 26 -50 36 -16 10 -39 27 -50 37
-41 40 -90 79 -98 79 -5 0 -25 16 -45 35 -20 19 -43 35 -50 35 -7 0 -15 7 -18
15 -4 8 -11 15 -18 15 -6 0 -19 8 -28 17 -18 20 -25 25 -83 68 -22 17 -51 40
-65 52 -14 13 -28 23 -31 23 -3 0 -20 12 -37 28 -44 39 -60 52 -67 52 -7 0
-18 8 -75 60 -25 22 -49 40 -55 40 -5 0 -26 15 -46 33 -20 17 -46 39 -58 47
-13 8 -35 25 -49 38 -31 26 -35 29 -80 61 -19 13 -46 35 -60 48 -15 14 -39 32
-54 41 -16 9 -28 20 -28 24 0 4 -4 8 -10 8 -10 0 -37 20 -72 52 -10 10 -21 18
-25 18 -5 0 -24 15 -44 33 -20 17 -46 39 -58 47 -36 24 -60 43 -93 73 -16 15
-33 27 -37 27 -3 0 -24 16 -46 35 -22 20 -61 50 -87 67 -27 17 -48 35 -48 40
0 4 -6 8 -13 8 -7 0 -19 9 -27 20 -8 11 -18 20 -22 20 -8 0 -126 88 -154 114
-6 6 -22 18 -34 26 -13 8 -33 25 -46 38 -13 12 -26 22 -29 22 -4 0 -12 6 -19
13 -7 6 -28 23 -46 37 -19 14 -56 43 -83 65 -27 22 -57 45 -65 50 -25 16 -42
29 -63 48 -10 9 -23 17 -29 17 -5 0 -10 4 -10 9 0 4 -19 21 -42 37 -24 16 -47
35 -51 41 -4 7 -15 13 -22 13 -8 0 -15 4 -15 8 0 4 -60 52 -132 107 -164 123
-156 116 -176 138 -9 9 -22 17 -28 17 -7 0 -14 3 -16 8 -3 8 -53 49 -88 72
-12 8 -30 22 -40 30 -9 8 -32 26 -50 40 -18 14 -39 31 -46 37 -7 7 -16 13 -21
13 -4 0 -21 13 -38 28 -16 15 -51 42 -76 59 -25 17 -56 43 -70 57 -13 14 -28
26 -32 26 -10 0 -31 17 -59 48 -12 12 -26 22 -31 22 -4 0 -14 6 -21 12 -8 7
-23 20 -36 28 -12 8 -35 27 -51 43 -16 15 -32 27 -37 27 -4 0 -18 10 -32 23
-14 12 -43 36 -65 52 -22 17 -46 36 -54 43 -8 7 -26 21 -40 30 -14 9 -30 22
-34 29 -4 7 -14 13 -21 13 -8 0 -16 7 -20 15 -3 8 -12 15 -20 15 -7 0 -17 7
-20 16 -8 20 -8 10984 0 10984 3 0 11 -6 19 -12z m11760 -5085 c-45 -866 -175
-1568 -401 -2158 -71 -183 -221 -489 -254 -515 -4 -3 -19 -29 -35 -57 -15 -29
-32 -53 -36 -53 -4 0 -20 -20 -36 -45 -15 -25 -31 -45 -35 -45 -5 0 -8 -4 -8
-10 0 -16 -202 -230 -218 -230 -4 0 -26 -18 -50 -40 -24 -22 -45 -40 -48 -40
-3 0 -22 -13 -42 -29 -20 -16 -52 -35 -69 -42 -18 -8 -33 -17 -33 -21 0 -12
-254 -106 -335 -123 -44 -9 -134 -19 -200 -22 -154 -7 -2966 14 -2974 23 -5 5
-9 458 -23 2987 l-3 547 2404 0 2403 0 -7 -127z m742 -5850 c-21 -544 -128
-1251 -257 -1683 -17 -58 -37 -127 -45 -155 -56 -204 -268 -681 -340 -765 -7
-8 -16 -25 -19 -37 -4 -13 -12 -23 -17 -23 -5 0 -9 -6 -9 -13 0 -7 -8 -22 -18
-33 -10 -10 -29 -35 -42 -54 -13 -19 -39 -51 -57 -70 -18 -19 -33 -39 -33 -44
0 -12 -173 -181 -226 -220 -21 -17 -41 -33 -44 -36 -3 -3 -23 -17 -45 -30 -22
-13 -42 -27 -45 -30 -3 -4 -18 -13 -35 -22 -16 -8 -43 -22 -60 -31 -75 -40
-153 -69 -267 -99 l-123 -33 -680 2 c-374 2 -1237 6 -1917 9 l-1238 6 0 1769
0 1769 2762 0 2761 0 -6 -177z"/>
</g>
</svg>
